<svg width="20" height="20" viewBox="0 0 20 20" fill="none" xmlns="http://www.w3.org/2000/svg">
<path d="M10 12L7.65 14.35C7.78333 14.6 7.875 14.8667 7.925 15.15C7.975 15.4333 8 15.7167 8 16C8 17.1 7.60833 18.0417 6.825 18.825C6.04167 19.6083 5.1 20 4 20C2.9 20 1.95833 19.6083 1.175 18.825C0.391667 18.0417 0 17.1 0 16C0 14.9 0.391667 13.9583 1.175 13.175C1.95833 12.3917 2.9 12 4 12C4.28333 12 4.56667 12.025 4.85 12.075C5.13333 12.125 5.4 12.2167 5.65 12.35L8 10L5.65 7.65C5.4 7.78333 5.13333 7.875 4.85 7.925C4.56667 7.975 4.28333 8 4 8C2.9 8 1.95833 7.60833 1.175 6.825C0.391667 6.04167 0 5.1 0 4C0 2.9 0.391667 1.95833 1.175 1.175C1.95833 0.391667 2.9 0 4 0C5.1 0 6.04167 0.391667 6.825 1.175C7.60833 1.95833 8 2.9 8 4C8 4.28333 7.975 4.56667 7.925 4.85C7.875 5.13333 7.78333 5.4 7.65 5.65L18.6 16.6C19.05 17.05 19.15 17.5625 18.9 18.1375C18.65 18.7125 18.2083 19 17.575 19C17.3917 19 17.2125 18.9625 17.0375 18.8875C16.8625 18.8125 16.7083 18.7083 16.575 18.575L10 12ZM13 9L11 7L16.575 1.425C16.7083 1.29167 16.8625 1.1875 17.0375 1.1125C17.2125 1.0375 17.3917 1 17.575 1C18.2083 1 18.6458 1.29167 18.8875 1.875C19.1292 2.45833 19.025 2.975 18.575 3.425L13 9ZM4 6C4.55 6 5.02083 5.80417 5.4125 5.4125C5.80417 5.02083 6 4.55 6 4C6 3.45 5.80417 2.97917 5.4125 2.5875C5.02083 2.19583 4.55 2 4 2C3.45 2 2.97917 2.19583 2.5875 2.5875C2.19583 2.97917 2 3.45 2 4C2 4.55 2.19583 5.02083 2.5875 5.4125C2.97917 5.80417 3.45 6 4 6ZM10 10.5C10.1333 10.5 10.25 10.45 10.35 10.35C10.45 10.25 10.5 10.1333 10.5 10C10.5 9.86666 10.45 9.75 10.35 9.65C10.25 9.55 10.1333 9.5 10 9.5C9.86667 9.5 9.75 9.55 9.65 9.65C9.55 9.75 9.5 9.86666 9.5 10C9.5 10.1333 9.55 10.25 9.65 10.35C9.75 10.45 9.86667 10.5 10 10.5ZM4 18C4.55 18 5.02083 17.8042 5.4125 17.4125C5.80417 17.0208 6 16.55 6 16C6 15.45 5.80417 14.9792 5.4125 14.5875C5.02083 14.1958 4.55 14 4 14C3.45 14 2.97917 14.1958 2.5875 14.5875C2.19583 14.9792 2 15.45 2 16C2 16.55 2.19583 17.0208 2.5875 17.4125C2.97917 17.8042 3.45 18 4 18Z" fill="white"/>
</svg>
