<svg width="24" height="24" viewBox="0 0 24 24" fill="none" xmlns="http://www.w3.org/2000/svg">
<path d="M4 20C3.45 20 2.97917 19.8042 2.5875 19.4125C2.19583 19.0208 2 18.55 2 18V6C2 5.45 2.19583 4.97917 2.5875 4.5875C2.97917 4.19583 3.45 4 4 4H8C8.28333 4 8.52083 4.09583 8.7125 4.2875C8.90417 4.47917 9 4.71667 9 5C9 5.28333 8.90417 5.52083 8.7125 5.7125C8.52083 5.90417 8.28333 6 8 6H4V18H8C8.28333 18 8.52083 18.0958 8.7125 18.2875C8.90417 18.4792 9 18.7167 9 19C9 19.2833 8.90417 19.5208 8.7125 19.7125C8.52083 19.9042 8.28333 20 8 20H4ZM12 22C11.7167 22 11.4792 21.9042 11.2875 21.7125C11.0958 21.5208 11 21.2833 11 21V3C11 2.71667 11.0958 2.47917 11.2875 2.2875C11.4792 2.09583 11.7167 2 12 2C12.2833 2 12.5208 2.09583 12.7125 2.2875C12.9042 2.47917 13 2.71667 13 3V4H20C20.55 4 21.0208 4.19583 21.4125 4.5875C21.8042 4.97917 22 5.45 22 6V18C22 18.55 21.8042 19.0208 21.4125 19.4125C21.0208 19.8042 20.55 20 20 20H13V21C13 21.2833 12.9042 21.5208 12.7125 21.7125C12.5208 21.9042 12.2833 22 12 22ZM13 18H20V6H13V18Z" fill="white"/>
</svg>
