<svg width="24" height="24" viewBox="0 0 24 24" fill="none" xmlns="http://www.w3.org/2000/svg">
<path d="M15.5 20.5C14.856 20.642 14 21.25 12 21.25C6.89137 21.25 2.75 17.1086 2.75 12C2.75 6.89137 6.89137 2.75 12 2.75C17.1086 2.75 21.25 6.89137 21.25 12C21.25 13.0501 21.075 14.0592 20.7527 15" stroke="#7E7F86" stroke-width="1.5" stroke-linecap="round" stroke-linejoin="round"/>
<path d="M9 10.25C9.69036 10.25 10.25 9.69036 10.25 9C10.25 8.30964 9.69036 7.75 9 7.75C8.30964 7.75 7.75 8.30964 7.75 9C7.75 9.69036 8.30964 10.25 9 10.25Z" fill="#7E7F86"/>
<path d="M15 10.25C15.6904 10.25 16.25 9.69036 16.25 9C16.25 8.30964 15.6904 7.75 15 7.75C14.3096 7.75 13.75 8.30964 13.75 9C13.75 9.69036 14.3096 10.25 15 10.25Z" fill="#7E7F86"/>
<path d="M16.5 12.75C16.776 12.75 17.003 12.974 16.975 13.25C16.8642 14.3586 16.3863 15.3985 15.6171 16.2045C14.8479 17.0105 13.8314 17.5364 12.7292 17.6987C11.6269 17.8611 10.502 17.6505 9.53305 17.1005C8.56411 16.5505 7.80667 15.6926 7.381 14.663C7.19388 14.2116 7.07393 13.7352 7.025 13.249C6.997 12.974 7.224 12.75 7.5 12.75H16.5Z" stroke="#7E7F86" stroke-width="1.5" stroke-linecap="round" stroke-linejoin="round"/>
<path d="M20.2911 17.9999V22.2166" stroke="white" stroke-width="2" stroke-linecap="round"/>
<path d="M22.5833 20.1084L18 20.1084" stroke="white" stroke-width="2" stroke-linecap="round"/>
</svg>
