<svg width="24" height="24" viewBox="0 0 24 24" fill="none" xmlns="http://www.w3.org/2000/svg">
<path d="M13.7942 4.49676C14.6045 5.38192 15.5786 6.09549 16.6606 6.59651C17.7426 7.09753 18.9112 7.37612 20.0993 7.41631C20.3382 7.41631 20.5673 7.31973 20.7362 7.14783C20.9051 6.97592 21 6.74276 21 6.49965C21 6.25654 20.9051 6.02338 20.7362 5.85148C20.5673 5.67957 20.3382 5.58299 20.0993 5.58299C16.173 5.58299 13.6898 1.48462 13.6654 1.44429C13.564 1.27257 13.41 1.13942 13.2271 1.0652C13.0443 0.990984 12.8425 0.979793 12.6528 1.03334C12.4631 1.08689 12.2958 1.20222 12.1766 1.3617C12.0574 1.52117 11.9929 1.716 11.9928 1.91637V13.4112C11.0711 12.5733 9.89467 12.0826 8.66019 12.0213C7.4257 11.96 6.20794 12.3317 5.21043 13.0744C4.21292 13.8171 3.4961 14.8857 3.17977 16.1016C2.86344 17.3175 2.96677 18.6071 3.47249 19.7548C3.9782 20.9025 4.85567 21.8388 5.95823 22.4072C7.06079 22.9756 8.32165 23.1417 9.53006 22.8776C10.7385 22.6136 11.8212 21.9355 12.5974 20.9566C13.3735 19.9777 13.796 18.7574 13.7942 17.4995V4.49676ZM8.38991 21.1662C7.67733 21.1662 6.98075 20.9511 6.38826 20.5482C5.79576 20.1453 5.33397 19.5727 5.06128 18.9027C4.78859 18.2327 4.71724 17.4955 4.85626 16.7842C4.99527 16.073 5.33842 15.4196 5.84229 14.9068C6.34616 14.3941 6.98813 14.0448 7.68702 13.9034C8.38591 13.7619 9.11033 13.8345 9.76867 14.112C10.427 14.3895 10.9897 14.8595 11.3856 15.4625C11.7815 16.0654 11.9928 16.7743 11.9928 17.4995C11.9928 18.472 11.6132 19.4046 10.9375 20.0922C10.2619 20.7799 9.34545 21.1662 8.38991 21.1662Z" fill="#7E7F86"/>
<path d="M19.938 12.7941V17.0141" stroke="white" stroke-width="2" stroke-linecap="round"/>
<path d="M22.2234 14.9042L17.6518 14.9042" stroke="white" stroke-width="2" stroke-linecap="round"/>
</svg>
