<svg width="18" height="21" viewBox="0 0 18 21" fill="none" xmlns="http://www.w3.org/2000/svg">
<path d="M3.375 20.25C2.75625 20.25 2.22656 20.0297 1.78594 19.5891C1.34531 19.1484 1.125 18.6188 1.125 18V3.375C0.80625 3.375 0.539062 3.26719 0.323437 3.05156C0.107813 2.83594 0 2.56875 0 2.25C0 1.93125 0.107813 1.66406 0.323437 1.44844C0.539062 1.23281 0.80625 1.125 1.125 1.125H5.625C5.625 0.80625 5.73281 0.539063 5.94844 0.323438C6.16406 0.107813 6.43125 0 6.75 0H11.25C11.5687 0 11.8359 0.107813 12.0516 0.323438C12.2672 0.539063 12.375 0.80625 12.375 1.125H16.875C17.1938 1.125 17.4609 1.23281 17.6766 1.44844C17.8922 1.66406 18 1.93125 18 2.25C18 2.56875 17.8922 2.83594 17.6766 3.05156C17.4609 3.26719 17.1938 3.375 16.875 3.375V18C16.875 18.6188 16.6547 19.1484 16.2141 19.5891C15.7734 20.0297 15.2437 20.25 14.625 20.25H3.375ZM14.625 3.375H3.375V18H14.625V3.375ZM6.75 15.75C7.06875 15.75 7.33594 15.6422 7.55156 15.4266C7.76719 15.2109 7.875 14.9438 7.875 14.625V6.75C7.875 6.43125 7.76719 6.16406 7.55156 5.94844C7.33594 5.73281 7.06875 5.625 6.75 5.625C6.43125 5.625 6.16406 5.73281 5.94844 5.94844C5.73281 6.16406 5.625 6.43125 5.625 6.75V14.625C5.625 14.9438 5.73281 15.2109 5.94844 15.4266C6.16406 15.6422 6.43125 15.75 6.75 15.75ZM11.25 15.75C11.5687 15.75 11.8359 15.6422 12.0516 15.4266C12.2672 15.2109 12.375 14.9438 12.375 14.625V6.75C12.375 6.43125 12.2672 6.16406 12.0516 5.94844C11.8359 5.73281 11.5687 5.625 11.25 5.625C10.9312 5.625 10.6641 5.73281 10.4484 5.94844C10.2328 6.16406 10.125 6.43125 10.125 6.75V14.625C10.125 14.9438 10.2328 15.2109 10.4484 15.4266C10.6641 15.6422 10.9312 15.75 11.25 15.75Z" fill="white"/>
</svg>
