<svg width="24" height="24" viewBox="0 0 24 24" fill="none" xmlns="http://www.w3.org/2000/svg">
<path d="M22 16.5V5.53849C22 5.29368 21.8947 5.05889 21.7071 4.88578C21.5196 4.71267 21.2652 4.61542 21 4.61542H3.00006C2.73484 4.61542 2.48049 4.71267 2.29295 4.88578C2.10542 5.05889 2.00006 5.29368 2.00006 5.53849V18.4615C2.00006 18.7064 2.10542 18.9411 2.29295 19.1143C2.48049 19.2874 2.73484 19.3846 3.00006 19.3846H16" stroke="#7E7F86" stroke-width="1.8" stroke-linecap="round" stroke-linejoin="round"/>
<path d="M18 4.61542L18 14.7692H22M6.00005 4.61542V19.3846M19 9.23079H22M2.00006 9.23079H5.00006M2.00006 8.30772V10.1539M4.50006 4.61542H7.50005M4.50006 19.3846H7.50005M16.5 4.61542H19.5M2.00006 14.7692H5.00006M2.00006 13.8462V15.6923M22 13.8462V15.6923M22 8.30772V10.1539" stroke="#7E7F86" stroke-width="1.8" stroke-linecap="round" stroke-linejoin="round"/>
<path d="M10.5 9.69232L14.5 12L10.5 14.3077V9.69232Z" stroke="#7E7F86" stroke-width="1.8" stroke-linejoin="round"/>
<path d="M20.2911 17.9999V22.2166" stroke="white" stroke-width="2" stroke-linecap="round"/>
<path d="M22.5833 20.1084L18 20.1084" stroke="white" stroke-width="2" stroke-linecap="round"/>
</svg>
